# xmcd
#
# Track frame offsets:
#	150
#	20145
#	35435
#	50165
#	68135
#	82092
#	103314
#	121249
#	148479
#	166152
#	184389
#	212117
#
# Disc length: 3020 seconds
#
# Revision: 1
# Processed by: cddbd v1.5.2PL0 Copyright (c) Steve Scherf et al.
# Submitted via: audiograbber 1.83.01
#
DISCID=bd0bca0c
DTITLE=The Quireboys - Live In London
DYEAR=2010
DGENRE=glam rock
TTITLE0=C'mon
TTITLE1=Misled
TTITLE2=Hey You
TTITLE3=This Is Rock 'N' Roll
TTITLE4=There She Goes Again
TTITLE5=Show Me What Ya Got
TTITLE6=Tramps and Thieves
TTITLE7=I Don't Love You Anymore
TTITLE8=Turn Away
TTITLE9=7 O'Clock
TTITLE10=Whippin' Boy 
TTITLE11=Sex Party
EXTD=
EXTT0=
EXTT1=
EXTT2=
EXTT3=
EXTT4=
EXTT5=
EXTT6=
EXTT7=
EXTT8=
EXTT9=
EXTT10=
EXTT11=
PLAYORDER=
